HIERARCHY
ROOT Hips
{
  OFFSET 0 0 0
  CHANNELS 6 Xposition Yposition Zposition Zrotation Yrotation Xrotation
  JOINT LeftThigh
  {
    OFFSET 8.409438 0 -5.917753
    CHANNELS 3 Zrotation Yrotation Xrotation
    JOINT LeftLeg
    {
      OFFSET 0 0 -42.358652
      CHANNELS 3 Zrotation Yrotation Xrotation
      JOINT LeftFoot
      {
        OFFSET 0 0 -39.357303
        CHANNELS 3 Zrotation Yrotation Xrotation
      }
    }
  }
  JOINT RightThigh
  {
    OFFSET -8.409438 0 -5.917753
    CHANNELS 3 Zrotation Yrotation Xrotation
    JOINT RightLeg
    {
      OFFSET 0 0 -42.358652
      CHANNELS 3 Zrotation Yrotation Xrotation
      JOINT RightFoot
      {
        OFFSET 0 0 -39.357303
        CHANNELS 3 Zrotation Yrotation Xrotation
      }
    }
  }
  JOINT SpineLow
  {
    OFFSET 0 0 4.719101
    CHANNELS 3 Zrotation Yrotation Xrotation
    JOINT SpineMid
    {
      OFFSET 0 0 12.899191
      CHANNELS 3 Zrotation Yrotation Xrotation
      JOINT Chest
      {
        OFFSET 0 0 12.899191
        CHANNELS 3 Zrotation Yrotation Xrotation
        JOINT LeftShoulder
        {
          OFFSET 7.550562 1.41573 9.438202
          CHANNELS 3 Zrotation Yrotation Xrotation
          JOINT LeftArm
          {
            OFFSET 9.155056 0 4.247191
            CHANNELS 3 Zrotation Yrotation Xrotation
            JOINT LeftForearm
            {
              OFFSET 0 0 25.771955
              CHANNELS 3 Zrotation Yrotation Xrotation
              JOINT LeftHand
              {
                OFFSET 0 0 25.197169
                CHANNELS 3 Zrotation Yrotation Xrotation
              }
            }
          }
        }
        JOINT RightShoulder
        {
          OFFSET -7.550562 1.41573 9.438202
          CHANNELS 3 Zrotation Yrotation Xrotation
          JOINT RightArm
          {
            OFFSET -9.155056 0 4.247191
            CHANNELS 3 Zrotation Yrotation Xrotation
            JOINT RightForearm
            {
              OFFSET 0 0 -25.771955
              CHANNELS 3 Zrotation Yrotation Xrotation
              JOINT RightHand
              {
                OFFSET 0 0 -25.197169
                CHANNELS 3 Zrotation Yrotation Xrotation
              }
            }
          }
        }
        JOINT Neck
        {
          OFFSET 0 0 15.101124
          CHANNELS 3 Zrotation Yrotation Xrotation
          JOINT Head
          {
            OFFSET 0 0 11.325843
            CHANNELS 3 Zrotation Yrotation Xrotation
            End Site
            {
              OFFSET 0 0 14.157303
            }
          }
        }
      }
    }
  }
}
MOTION
Frames: 10
Frame Time: 0.0
0.0  93.25843  0.0  -9.166259  1.941647  -132.001292  -2.435478  -8.547367  20.31485  -12.822244  1.400138  18.742128  2.578539  1.663211  4.526623  23.984151  -33.302208  -101.269968  19.019507  33.361274  108.735032  14.334808  17.532782  4.976566  -1.790511  -3.172324  3.300587  -5.344802  -8.401462  9.298544  -5.344802  -8.401462  9.298544  -6.939681  31.723884  19.293394  171.080616  43.997452  -138.899511  -18.964687  -8.638952  58.585197  100.203265  6.432139  -13.980464  -3.334146  -0.147021  27.680348  60.775786  52.015364  30.149945  -21.178806  6.32879  -74.622567  78.964248  4.946282  -18.635951  -26.601491  16.204519  8.642532  -20.054013  11.808844  7.176923  
0.0  93.25843  0.0  -9.502619  2.63424  -132.745984  -2.895578  -8.477484  21.17816  -12.917472  1.455666  18.90694  2.710653  1.63321  4.529009  23.30511  -33.303938  -103.036389  22.509443  31.39186  111.638751  13.306513  14.848452  3.674407  -1.842036  -3.141043  3.482558  -5.503522  -8.292881  9.800917  -5.503522  -8.292881  9.800917  -5.959376  32.292248  19.982177  174.418064  42.176015  -139.293097  -12.618462  -7.59243  54.939638  97.681602  6.487363  -15.205738  -5.01965  0.175996  27.694653  55.783955  47.913531  28.869976  -19.433206  5.32298  -74.735561  82.235761  0.478112  -16.923498  -27.139259  15.600827  8.25864  -20.445422  11.364948  6.880002  
0.0  93.25843  0.0  -9.692686  3.389118  -133.373914  -3.238708  -8.335265  21.793504  -12.706477  1.445258  19.283392  2.413962  1.683835  4.397124  23.091555  -32.40291  -104.593908  22.276816  30.999927  112.03059  12.651097  14.634631  4.039174  -1.926053  -3.092946  3.650624  -5.745978  -8.133816  10.266836  -5.745978  -8.133816  10.266836  -4.594425  32.822989  20.843668  175.97908  40.867718  -141.071583  -7.994992  -6.191611  53.055817  93.299585  5.136215  -17.324872  -6.347507  0.214043  26.961734  50.608655  43.700084  28.580326  -15.869548  5.623249  -73.158451  82.355921  0.439213  -16.262182  -27.487017  15.071318  7.662129  -20.690227  10.989019  6.420937  
0.0  93.25843  0.0  -9.838189  4.20902  -133.813544  -3.581627  -8.162718  22.017949  -12.636491  1.643488  19.69936  2.448031  1.847965  4.340928  22.659566  -32.15028  -105.541628  22.229802  31.211934  112.053938  12.842091  14.857116  4.306666  -2.05712  -3.087325  3.674424  -6.106706  -8.095485  10.347069  -6.106706  -8.095485  10.34707  -2.633197  33.689711  22.768005  176.06366  39.948503  -143.459619  -6.105296  -4.477419  51.596714  91.802295  3.811811  -17.740345  -6.772917  0.419037  27.614263  44.14892  40.96116  28.294076  -11.237275  7.228693  -73.132415  81.390755  0.117567  -15.928576  -27.532197  15.11395  7.076113  -20.708452  11.046614  5.986041  
0.0  93.25843  0.0  -9.786367  5.046072  -134.057929  -3.774142  -7.887292  21.954038  -12.43687  1.857381  20.156539  2.486946  1.994942  4.326164  22.274053  -32.14017  -106.026547  22.755336  31.385942  112.220696  13.370922  14.654179  4.29212  -2.287268  -2.938833  3.745664  -6.718796  -7.647041  10.550541  -6.718796  -7.647041  10.550541  -0.103331  33.73699  24.59561  174.81445  39.283135  -146.188776  -5.236018  -4.085936  49.963068  90.907645  2.572695  -17.573633  -5.876242  0.656036  28.846638  38.364559  38.628618  27.82819  -7.997683  7.645795  -71.510148  80.487584  1.651673  -15.163119  -26.844383  14.899725  6.444984  -20.180173  10.91949  5.487042  
0.0  93.25843  0.0  -9.726892  5.674389  -134.131594  -3.790315  -7.820422  21.702294  -12.41345  2.182406  20.480813  2.588919  2.07011  4.326714  21.979474  -32.247324  -106.141852  23.020188  31.531555  112.204413  13.595982  14.541912  4.467441  -2.487305  -2.834989  3.85331  -7.259058  -7.319657  10.85356  -7.259058  -7.319657  10.853561  1.36968  33.641623  25.340948  172.251268  38.580243  -149.830472  -4.844872  -4.82613  48.413786  89.090293  1.71853  -18.14717  -5.170711  2.100987  30.112666  34.985218  35.535323  27.307556  -6.12957  7.724108  -70.135579  79.499124  2.297995  -13.001301  -26.224439  14.529284  5.639731  -19.699284  10.680449  4.853504  
0.0  93.25843  0.0  -9.532801  5.969997  -133.951015  -3.440851  -7.983532  21.23565  -12.529949  2.596403  20.662473  2.987762  2.049056  4.415567  21.944231  -32.549458  -105.808297  22.914366  31.54942  111.79822  13.372955  14.538196  4.688035  -2.630212  -2.716088  4.010092  -7.643889  -6.953538  11.281188  -7.643889  -6.953538  11.281188  1.778901  33.175176  25.03458  168.843529  37.228285  -153.593188  -6.992009  -6.103532  46.85109  85.670311  0.866075  -20.149256  -4.8541  3.620735  31.032023  34.238707  32.335731  27.281945  -5.851417  8.068171  -68.623611  78.681382  2.864501  -10.908261  -25.712367  13.860313  4.787988  -19.300253  10.216774  4.175955  
0.0  93.25843  0.0  -9.256329  6.002729  -133.642718  -2.851074  -8.136703  20.492232  -12.519998  2.883294  20.971167  3.151534  1.957854  4.415843  22.030152  -33.172193  -104.952766  22.699313  31.535694  111.172919  13.117269  14.56777  4.830844  -2.800703  -2.584623  4.194308  -8.102224  -6.543147  11.782875  -8.102224  -6.543147  11.782875  2.40916  32.800976  24.350906  165.59396  35.715586  -156.926509  -13.3688  -6.483914  45.478444  82.409937  -3.055533  -22.224427  -4.376363  4.601693  31.632904  35.768  29.602993  27.673868  -7.301273  7.95269  -66.624207  77.785563  3.4757  -9.316156  -24.972057  13.126495  4.075816  -18.735551  9.698609  3.595756  
0.0  93.25843  0.0  -8.983342  5.697856  -133.132549  -1.40886  -8.071516  19.64937  -12.909375  2.494378  21.150403  3.319285  1.827417  4.395063  22.242544  -33.957655  -103.847235  22.334604  31.521145  110.526928  12.919473  14.598768  4.942369  -2.951828  -2.44674  4.422606  -8.507644  -6.110763  12.400162  -8.507644  -6.110763  12.400162  2.781238  32.446545  22.919547  163.502302  34.37213  -159.398734  -19.877031  -6.262074  43.967387  81.76754  -9.951245  -23.314798  -3.383201  4.391241  30.94596  38.186092  26.997379  28.8013  -9.881444  7.476312  -64.487177  77.667218  3.914183  -7.881951  -24.158227  12.298224  3.351343  -18.11701  9.108768  3.002603  
0.0  93.25843  0.0  -8.553236  5.117744  -132.536383  0.534253  -8.984151  18.926799  -13.749912  2.795237  20.825997  3.403737  1.539689  4.455627  22.438679  -34.676395  -102.197499  21.689069  31.424812  109.831588  12.600454  14.5921  5.011792  -2.978962  -2.281467  4.71827  -8.571228  -5.61716  13.185494  -8.571228  -5.61716  13.185494  2.599996  31.633576  20.75697  162.494742  33.215494  -160.94561  -25.551492  -5.545785  43.294667  85.435704  -11.273019  -23.982093  -2.155615  3.40186  29.795278  39.983375  24.502877  29.483705  -12.709961  7.250006  -62.585081  77.111317  4.39656  -6.654133  -23.513389  11.197907  2.68412  -17.628285  8.310159  2.447044  
